<?xml version="1.0" encoding="UTF-8"?>
<svg width="187px" height="301px" viewBox="0 0 187 301" version="1.1" xmlns="http://www.w3.org/2000/svg" xmlns:xlink="http://www.w3.org/1999/xlink">
    <title>pester</title>
    <g id="Page-1" stroke="none" stroke-width="1" fill="none" fill-rule="evenodd">
        <g id="pester" fill="#0271C6" fill-rule="nonzero">
            <path d="M65.9202291,50.6492448 C65.357509,50.2341432 64.7799804,49.8486917 64.2616856,49.3891149 C60.3051134,45.9045408 57.7475592,41.0997888 57.0647914,35.868662 C55.5839489,26.0099984 58.8418023,17.5893654 65.6388691,10.5622879 C73.2059739,2.73465725 82.668557,-0.452730231 93.4490899,0.0513217429 C108.761001,0.748099471 119.793277,11.7334675 123.24364,25.5207715 C125.999802,36.2395742 124.066462,47.6262068 117.927415,56.831294 C113.74784,63.3396417 108.340566,68.9695236 102.008359,73.4057089 C97.2992802,76.7858222 92.3828834,79.8990844 87.4368696,82.9233962 C80.2578497,87.084964 73.3348037,91.6741585 66.7050756,96.666225 C60.5318732,101.484542 55.0157054,107.091635 50.2973415,113.344415 C43.953882,122.136954 39.745488,132.289053 38.0063493,142.994531 C35.3005332,158.078142 36.9548701,173.621687 42.7746619,187.795857 C46.8351636,197.229571 52.2641804,206.011678 58.8862276,213.858309 C66.1719723,222.842294 74.0204372,231.322227 82.0169863,239.65391 C85.9794221,243.655249 89.6560344,247.930458 93.0196456,252.447935 C99.2243754,261.090944 102.956098,270.623456 102.689547,281.416098 C102.729589,286.910833 101.148069,292.295073 98.1433604,296.893459 C97.1071208,298.578006 95.6795325,299.986853 93.9821932,301 C94.186607,300.634959 94.414134,300.283382 94.6633807,299.947421 C97.4899652,296.325625 99.157223,291.933176 99.4465018,287.346122 C100.231348,278.288011 97.6102571,270.149054 92.8123277,262.588275 C89.5206031,257.66297 85.6473651,253.15322 81.2765651,249.156772 C74.3314141,242.529971 67.312221,235.977295 60.3226447,229.39497 C60.1597521,229.231894 59.9672425,229.113294 59.6414572,228.846443 C54.9976236,236.026019 46.8619171,240.157873 38.3321346,239.668735 C35.0890897,239.579785 29.3286126,238.112104 27.2702417,235.695619 C27.6032439,235.401977 27.9544064,235.129644 28.3216398,234.880241 C31.9052785,232.686133 35.5481508,230.580974 39.0725558,228.297915 C41.6104115,226.63157 44.5820498,225.749905 47.6170167,225.76283 C49.8678972,225.76283 52.059544,225.76283 54.3548497,225.76283 C54.9768035,225.76283 55.5987574,225.64423 56.5613049,225.55528 L54.887953,223.731797 C50.2805116,218.872207 45.9825415,213.727665 42.0194323,208.328562 C33.973448,197.051793 28.6001697,184.087697 26.3076941,170.420889 C24.8307498,161.50561 24.6362676,152.424569 25.7301655,143.454108 C26.7785144,133.108948 29.8958808,123.080828 34.8965802,113.967068 C36.9105259,110.364579 39.427958,107.043766 41.7380722,103.589527 C42.0934744,103.055825 42.5081103,102.566598 42.9967883,101.89947 C42.5377271,101.410244 42.1230912,100.935842 41.6640301,100.505915 C36.2243525,95.3200763 29.2922747,91.9798128 21.8503584,90.9585777 C15.1951806,90.0079522 8.40705209,90.8894526 2.21438771,93.5084876 C1.59243389,93.7605136 0.91124637,94.4572914 0.274484125,93.864289 C-0.362278121,93.2712867 0.274484125,92.3817832 0.526227338,91.7591308 C2.95769,86.1831026 7.71060051,81.9559563 13.5280239,80.1955855 C27.107349,75.4812171 42.7598535,81.9745925 48.4018631,94.7093173 C48.5226288,94.946817 48.6612395,95.1747903 48.816499,95.39127 C49.1570928,95.124419 49.4828781,94.887218 49.7790466,94.620367 C57.5633555,87.2314815 66.2215135,80.8239192 75.5605133,75.5405173 C81.6467757,71.9825034 87.7182297,68.4096644 93.626791,64.5996245 C100.897727,59.9149061 107.161691,54.1034834 110.967456,46.1720773 C115.543259,36.6099149 115.306324,27.0774026 109.486613,18.004467 C105.496225,11.7277323 98.6566068,7.84037558 91.2278263,7.6269264 C84.2259056,6.97267539 77.2242067,8.87910816 71.5178135,12.9935974 C63.7137739,18.6864197 59.5822235,26.3361497 59.9524341,36.120688 C60.089682,40.9120516 61.9030598,45.5030569 65.0761489,49.0926137 C65.461168,49.5373655 65.8165701,49.9821172 66.2015892,50.441694 L65.9202291,50.6492448 Z M163.951998,234.850591 C160.368359,232.656482 156.740295,230.536499 153.201082,228.268265 C150.713501,226.639299 147.806796,225.768884 144.834322,225.76283 C142.346507,225.76283 139.858692,225.76283 137.43011,225.64423 C136.689689,225.64423 135.949268,225.481154 134.942295,225.362554 C135.608674,224.621301 136.052927,224.087599 136.541605,223.583547 C142.552595,217.26754 147.760261,210.231535 152.046025,202.63574 C159.459166,189.726402 163.531504,175.16673 163.892764,160.280549 C164.018533,153.40268 163.322535,146.53442 161.819585,139.821969 C159.061021,126.462317 152.875527,114.051888 143.871775,103.811903 C143.605223,103.500577 143.35348,103.174425 143.116545,102.877924 C143.175234,102.748825 143.244581,102.624852 143.323863,102.507298 C149.373959,95.6839579 157.804947,91.4398555 166.884066,90.6472514 C172.942276,90.0477068 179.053728,90.9858487 184.654175,93.3750621 C185.305746,93.6419132 186.135018,94.4424663 186.742163,93.7456886 C187.349308,93.0489108 186.742163,92.1890575 186.371952,91.4922797 C184.336695,86.8555818 180.637551,83.152283 176.006055,81.1147391 C170.179308,78.3134327 163.539315,77.7081619 157.303016,79.4098574 C148.032942,81.8115168 141.250684,87.2523131 137.800321,96.4290241 C137.672979,96.733384 137.519377,97.0260512 137.34126,97.3037025 C132.067177,92.8495618 126.339293,88.9637419 120.252338,85.7105071 C114.235786,82.3659551 108.019302,79.3953267 101.638149,76.8154723 C102.265153,77.5201522 102.965066,78.1562479 103.726136,78.7130797 C110.256652,83.8128997 116.876017,88.8237693 123.302873,94.0421897 C129.620559,99.0914444 135.115911,105.093107 139.59214,111.832259 C147.454733,124.060778 151.983163,138.136656 152.727212,152.660469 C153.673195,168.465324 150.348172,184.233392 143.101737,198.306823 C137.556358,209.411219 130.433601,219.652944 121.955307,228.713017 C115.854236,235.324993 109.501422,241.714593 103.237458,248.207968 C101.652957,249.85355 100.02403,251.454656 98.4099121,253.070587 C110.573471,246.022673 121.900128,237.617606 132.17312,228.016239 C140.865665,242.20382 158.443264,241.625643 165.06263,235.651144 C164.603569,235.369468 164.292592,235.058142 163.951998,234.850591 L163.951998,234.850591 Z M98.1433604,27.1367028 C95.6372844,22.7483103 90.7226612,20.3204922 85.7190924,20.9991288 C79.2473524,22.0921103 74.6341628,27.8858349 75.0126016,34.4454564 C75.3692534,39.6047231 78.866787,44.00955 83.8069895,45.5211917 C88.7471919,47.0328333 94.1068962,45.338213 97.2837199,41.2601468 C100.460544,37.1820805 100.796534,31.5651778 98.128552,27.1367028 L98.1433604,27.1367028 Z M103.740945,166.90735 C108.774914,165.897999 113.685243,164.347197 118.386476,162.281932 C124.13478,159.778696 129.646058,156.761951 134.853444,153.268297 C135.270229,153.048041 135.641955,152.751332 135.949268,152.393618 C136.171394,152.097117 136.378712,151.51894 136.230628,151.296564 C135.952825,150.942456 135.538925,150.721821 135.090379,150.688737 C134.504109,150.744062 133.92978,150.889055 133.38741,151.118663 C127.019788,153.134871 120.696591,155.254854 114.299351,157.167287 C101.075563,161.326111 86.9520979,161.690765 73.5317592,158.219866 C67.6083895,156.826311 61.6850198,155.254854 55.865309,153.698223 C55.1240713,153.507858 54.3644036,153.398502 53.5996201,153.372072 C53.2613491,153.38247 52.9480978,153.553026 52.7555399,153.831649 C52.6831162,154.165426 52.7769713,154.513633 53.0072831,154.765627 C53.5567086,155.299221 54.17413,155.757823 54.8435277,156.129533 C57.2128756,157.434138 59.6266488,158.679443 62.0256135,159.954398 C67.2180789,162.575668 72.6799605,164.623689 78.3148803,166.062322 C83.7277536,167.377043 89.2869582,167.989891 94.8558902,167.885804 C97.8328978,167.718665 100.798829,167.392046 103.740945,166.90735 L103.740945,166.90735 Z" id="svg_1"></path>
        </g>
    </g>
</svg>